<svg xmlns="http://www.w3.org/2000/svg" width="84" height="82" viewBox="0 0 84 82"><g fill="none" fill-rule="evenodd"><path d="M40.16 59.34a15.8 15.8 0 0 1-5.76-12.02c.1-4.63 2.08-9.01 5.48-12.13 7.94-7.37 20.56-6.4 30.29-11.21l-2.24 17.75c-.66 4.94-1.28 9.9-3.5 14.28-2.21 4.39-12.04 13.59-24.27 3.33Z" fill="#E8F5D3"></path><path d="M70.28 23.82 68.1 41.77l-.02.13c-.57 4.58-1.21 9.72-3.48 14.2a16.3 16.3 0 0 1-10.63 7.85c-4.66.92-9.33-.6-13.94-4.47A16.05 16.05 0 0 1 34.2 47.3c.11-4.7 2.1-9.11 5.55-12.27 4.79-4.44 11.3-5.88 17.59-7.3 4.38-.81 8.65-2.13 12.72-3.92l.03-.01a.17.17 0 0 1 .1-.03c.04 0 .07.02.1.04Zm-.36.54a64.35 64.35 0 0 1-12.49 3.75c-6.58 1.48-12.78 2.9-17.41 7.22a16.9 16.9 0 0 0-5.43 12.01 15.6 15.6 0 0 0 5.7 11.86c4.54 3.81 9.11 5.26 13.6 4.37 4.4-.97 8.15-3.74 10.37-7.65 2.2-4.38 2.86-9.38 3.46-14.22Z" stroke="#000" fill="#E8F5D3"></path><path d="M30.27 70.53a.7.7 0 0 1-.23-.48.68.68 0 0 1 .18-.5 867.6 867.6 0 0 0 27.61-31.77.7.7 0 0 1 .98-.08.7.7 0 0 1 .09.97c-8.91 10.8-18.2 21.5-27.65 31.82a.68.68 0 0 1-.48.22.7.7 0 0 1-.5-.18Z" fill="#000"></path><path d="m45.9 53.16-.06-.06a.24.24 0 0 1 .1-.3c4.08-2.04 8.79-2.5 13.24-1.3a.23.23 0 0 1 .18.27.24.24 0 0 1-.29.16 18.31 18.31 0 0 0-12.93 1.28.21.21 0 0 1-.24-.05ZM50.54 47.44a.23.23 0 0 1-.08-.21c.41-2.08.44-4.22.07-6.32-.25-.95-.58-1.87-.97-2.77l-.95-2.33a.25.25 0 0 1 .13-.31c.12-.04.25.02.3.14l.95 2.33c.4.92.73 1.87.98 2.84a17.6 17.6 0 0 1-.05 6.49.25.25 0 0 1-.28.19l-.1-.05Z" fill="#000"></path><path d="m11.92 5.83 10.12 6.86c3.1 2.12 6 4.1 8.06 6.9a11.13 11.13 0 0 1 1.32 9.52c-.88 2.53-2.97 4.98-7.06 6.71a11.15 11.15 0 0 1-9.37-.21 11.9 11.9 0 0 1-5.86-7.3c-1.18-4.16-.22-8.4.87-12.68l.24-.92c.75-2.95 1.51-5.91 1.68-8.88Z" stroke="#000" fill="#E8F5D3"></path><path d="M24.98 37.4a12.19 12.19 0 0 1-10.23-.22 12.91 12.91 0 0 1-6.36-7.93c-1.32-4.66-.1-9.46 1.1-14.11.93-3.11 1.5-6.32 1.68-9.55 0-.19.1-.37.27-.45a.5.5 0 0 1 .53.03l10.87 7.37c2.86 1.93 6.08 4.1 8.3 7.13a12.29 12.29 0 0 1 1.64 9.87c-.99 3.45-3.6 6.09-7.8 7.87ZM12.16 6.54a47.49 47.49 0 0 1-1.68 8.84c-1.21 4.73-2.36 9.2-1.1 13.6a11.98 11.98 0 0 0 5.86 7.3 11.12 11.12 0 0 0 9.35.21c3.9-1.65 6.31-4.07 7.2-7.2.8-3.1.27-6.36-1.48-9-2.1-2.87-5.13-4.93-8.06-6.9l-10.1-6.85Z"></path><path d="M26.15 41.07a.85.85 0 0 1-.46.06c-.14-.03-.24-.1-.28-.2a332.5 332.5 0 0 0-9.2-23.43c-.1-.21.1-.5.43-.63.33-.14.66-.08.76.12a319.83 319.83 0 0 1 9.22 23.46c.04.1 0 .23-.08.34a.9.9 0 0 1-.39.28Z" fill="#000"></path><path d="m22.05 30.67-.06.02a.17.17 0 0 1-.16-.16 13.45 13.45 0 0 1 3.56-8.87.17.17 0 0 1 .12-.06c.04 0 .09.01.12.04.07.06.07.16 0 .23a13.14 13.14 0 0 0-3.47 8.66c0 .06-.05.12-.11.14ZM20.4 25.98a.17.17 0 0 1-.17-.02 12.78 12.78 0 0 0-4.18-2.15c-.72-.15-1.45-.24-2.19-.28l-1.88-.15a.18.18 0 0 1-.16-.19.2.2 0 0 1 .2-.15l1.88.15c.75.04 1.5.13 2.23.29 1.57.46 3.03 1.21 4.3 2.2.08.06.1.17.04.25l-.07.05Z" fill="#000"></path></g></svg>